<?xml version="1.0" encoding="utf-8"?>
<!-- Generator: Adobe Illustrator 16.0.0, SVG Export Plug-In . SVG Version: 6.00 Build 0)  -->
<!DOCTYPE svg PUBLIC "-//W3C//DTD SVG 1.0//EN" "http://www.w3.org/TR/2001/REC-SVG-20010904/DTD/svg10.dtd">
<svg version="1.0" id="Layer_1" xmlns="http://www.w3.org/2000/svg" xmlns:xlink="http://www.w3.org/1999/xlink" x="0px" y="0px"
	 width="29.623px" height="23.877px" viewBox="0 0 29.623 23.877" enable-background="new 0 0 29.623 23.877" xml:space="preserve">
<g>
	<path fill-rule="evenodd" clip-rule="evenodd" fill="#C47A48" d="M8.674,10.45H1.645c-0.453,0-0.879,0.172-1.162,0.458
		C0.199,11.166,0,11.538,0,11.967c0,0.401,0.199,0.801,0.482,1.059c0.283,0.287,0.709,0.459,1.162,0.459h26.334
		c0.453,0,0.879-0.172,1.162-0.459c0.313-0.258,0.482-0.658,0.482-1.059c0-0.429-0.17-0.801-0.482-1.059
		c-0.283-0.286-0.709-0.458-1.162-0.458H8.674z M27.979,0H1.645C1.191,0,0.766,0.172,0.482,0.458C0.199,0.745,0,1.117,0,1.518
		c0,0.429,0.199,0.801,0.482,1.088c0.283,0.286,0.709,0.458,1.162,0.458h26.334c0.453,0,0.879-0.172,1.162-0.458
		c0.313-0.287,0.482-0.659,0.482-1.088c0-0.401-0.17-0.773-0.482-1.06C28.857,0.172,28.432,0,27.979,0L27.979,0z M27.979,20.813
		H1.645c-0.453,0-0.879,0.172-1.162,0.459S0,21.931,0,22.36c0,0.4,0.199,0.773,0.482,1.059c0.283,0.287,0.709,0.459,1.162,0.459
		h26.334c0.453,0,0.879-0.172,1.162-0.459c0.313-0.285,0.482-0.658,0.482-1.059c0-0.43-0.17-0.801-0.482-1.088
		C28.857,20.985,28.432,20.813,27.979,20.813L27.979,20.813z"/>
</g>
</svg>
