<?xml version="1.0" encoding="utf-8"?>
<!-- Generator: Adobe Illustrator 16.0.0, SVG Export Plug-In . SVG Version: 6.00 Build 0)  -->
<!DOCTYPE svg PUBLIC "-//W3C//DTD SVG 1.0//EN" "http://www.w3.org/TR/2001/REC-SVG-20010904/DTD/svg10.dtd">
<svg version="1.0" id="Layer_1" xmlns="http://www.w3.org/2000/svg" xmlns:xlink="http://www.w3.org/1999/xlink" x="0px" y="0px"
	 width="25.2px" height="24.078px" viewBox="0 0 25.2 24.078" enable-background="new 0 0 25.2 24.078" xml:space="preserve">
<g>
	<path fill-rule="evenodd" clip-rule="evenodd" fill="#a2a3a4" d="M24.945,17.093c-0.085-0.086-0.171-0.172-0.313-0.229
		c-0.113-0.057-0.227-0.114-0.368-0.114s-0.283,0-0.396,0.028l-1.134,0.372l0.198-0.515c0.142-0.315,0.255-0.63,0.34-0.945
		c0.113-0.314,0.198-0.63,0.283-0.944c0.085-0.458,0.171-0.888,0.228-1.346c0.028-0.458,0.057-0.888,0.057-1.346
		c0-1.632-0.313-3.178-0.907-4.609c-0.596-1.46-1.475-2.806-2.58-3.922c-1.105-1.088-2.409-2.004-3.883-2.605
		C15.08,0.315,13.55,0,11.934,0S8.788,0.315,7.37,0.917C5.924,1.518,4.592,2.434,3.487,3.522C2.41,4.638,1.502,5.984,0.907,7.444
		C0.312,8.875,0,10.422,0,12.054s0.312,3.178,0.907,4.581c0.595,1.488,1.502,2.806,2.58,3.922c1.105,1.117,2.438,2.004,3.883,2.605
		c1.417,0.602,2.948,0.916,4.564,0.916c0.142,0,0.255-0.028,0.368-0.057c0.142-0.058,0.255-0.144,0.34-0.229
		c0.113-0.114,0.17-0.229,0.227-0.344c0.057-0.114,0.085-0.258,0.085-0.4c0-0.144-0.028-0.286-0.085-0.401
		c-0.057-0.114-0.114-0.229-0.227-0.343c-0.085-0.086-0.198-0.172-0.34-0.229c-0.113-0.028-0.227-0.058-0.368-0.058
		c-1.333,0-2.608-0.286-3.77-0.772c-1.219-0.487-2.296-1.231-3.203-2.147c-0.907-0.916-1.645-2.033-2.154-3.235
		c-0.482-1.174-0.737-2.462-0.737-3.808s0.255-2.634,0.737-3.808c0.51-1.231,1.247-2.319,2.154-3.235
		C5.868,4.094,6.945,3.35,8.164,2.834c1.162-0.486,2.438-0.744,3.77-0.744s2.608,0.258,3.77,0.744
		c1.19,0.516,2.296,1.26,3.203,2.176c0.907,0.916,1.645,2.004,2.126,3.235c0.481,1.174,0.766,2.462,0.766,3.808
		c0,0.372-0.028,0.744-0.057,1.116c-0.057,0.372-0.113,0.745-0.199,1.117c-0.057,0.2-0.113,0.429-0.17,0.658
		c-0.085,0.229-0.142,0.458-0.227,0.658l-0.255,0.688l-0.426-1.231c-0.028-0.143-0.113-0.258-0.198-0.372
		c-0.085-0.086-0.198-0.172-0.312-0.229c-0.113-0.058-0.227-0.115-0.368-0.115c-0.114-0.028-0.256,0-0.369,0.029l-0.057,0.028
		c-0.113,0.028-0.227,0.086-0.34,0.172c-0.085,0.086-0.17,0.2-0.227,0.344c-0.057,0.086-0.113,0.229-0.113,0.343
		c-0.028,0.144,0,0.258,0.028,0.373l1.162,3.636c0.028,0.086,0.085,0.2,0.142,0.286s0.142,0.172,0.227,0.229
		c0.085,0.057,0.198,0.114,0.283,0.143c0.113,0.029,0.198,0.058,0.313,0.058l0.17-0.028l0.17-0.029l3.515-1.174
		c0.142-0.028,0.256-0.086,0.341-0.172c0.113-0.114,0.198-0.2,0.255-0.343c0.057-0.115,0.113-0.229,0.113-0.373
		c0-0.143,0-0.286-0.057-0.4C25.115,17.321,25.03,17.207,24.945,17.093L24.945,17.093z"/>
</g>
</svg>
