<?xml version="1.0" encoding="utf-8"?>
<!-- Generator: Adobe Illustrator 16.0.0, SVG Export Plug-In . SVG Version: 6.00 Build 0)  -->
<!DOCTYPE svg PUBLIC "-//W3C//DTD SVG 1.0//EN" "http://www.w3.org/TR/2001/REC-SVG-20010904/DTD/svg10.dtd">
<svg version="1.0" id="Layer_1" xmlns="http://www.w3.org/2000/svg" xmlns:xlink="http://www.w3.org/1999/xlink" x="0px" y="0px"
	 width="334.941px" height="58.291px" viewBox="0 0 334.941 58.291" enable-background="new 0 0 334.941 58.291"
	 xml:space="preserve">
<g>
	<path fill="#FCD79C" d="M48.359,58.291H328.62c3.487,0,6.321-2.862,6.321-6.384V6.385c0-3.521-2.834-6.385-6.321-6.385H48.359
		c6.009,0,11.14,4.065,12.841,9.62c1.502,4.094,2.523,11.309,2.523,19.525S62.702,44.577,61.2,48.672
		C59.499,54.226,54.368,58.291,48.359,58.291L48.359,58.291z"/>
	<path fill="#E69965" d="M48.359,58.291H328.62c3.458,0,6.321-2.862,6.321-6.384v-1.375H60.463
		C58.309,55.113,53.688,58.291,48.359,58.291L48.359,58.291z"/>
	<path fill="#F8C586" d="M282.728,0c-3.005,1.088-6.01,2.176-9.241,2.863c-6.491,1.346-13.748,1.947-20.438,2.92
		c-11.735,1.661-21.771,1.918-33.619,1.604c-4.762-0.143-9.383,0.888-14.145,1.174c-10.035,0.601-19.956-1.403-30.189-0.802
		c-3.826,0.201-7.625,0.602-11.452,0.687c-5.839,0.144-11.65-0.429-17.405-1.002c-4.989-0.515-10.006-1.002-14.797-2.004
		c-4.762-0.974-9.241-2.434-13.55-4.008c-0.595-0.229-2.919-0.802-5.102-1.432h9.099c2.523,0.773,4.96,1.632,7.313,2.605
		c1.559,0.658,3.118,1.374,4.96,1.689c1.361,0.229,2.778,0.229,4.167,0.315c4.11,0.201,8.107,1.002,12.161,1.489
		c8.249,1.031,16.753,0.831,25.2,0.63c5.612-0.114,11.253-0.257,16.866-0.372c8.306-0.2,16.61-0.372,24.916-0.573
		c6.86-0.143,13.72-0.315,20.58-0.458c6.803-0.172,13.691-0.315,20.239-1.489c2.721-0.487,5.386-1.145,8.135-1.517
		c4.366-0.63,9.043-0.602,12.927-1.947c0.34-0.114,0.651-0.229,0.992-0.372H282.728z M328.62,0c0.17,0,0.313,0,0.482,0.029
		c-0.17,0.086-0.341,0.2-0.511,0.315c-0.879,0.544-1.559,1.231-2.636,1.603c-2.324,0.859-5.272,0-7.966,0.058
		c-4.394,0.085-7.54,2.462-11.14,4.037c-2.58,1.117-6.066,1.976-9.156,2.376c-3.26,0.401-6.803-0.086-9.864,0.916
		c-1.503,0.516-2.665,1.346-3.912,2.09c-9.071,5.439-22.422,7.043-34.979,8.331c-15.676,1.604-31.691,3.121-47.396,1.661
		c-5.386-0.515-12.132-0.573-17.574,0.029c-5.642,0.601-10.403,2.92-16.356,2.777c-4.28-0.086-8.532-0.687-12.472-1.775
		c-2.835-0.745-5.5-1.775-8.391-2.462c-14.684-3.493-32.684,1.718-46.46-2.978c-3.458-1.202-6.548-2.978-10.432-3.378
		c-2.863-0.315-5.868,0.172-8.702-0.229c-3.657-0.544-6.321-2.434-9.127-3.979c-4.592-2.52-10.12-4.294-15.591-6.041
		C52.752,2.205,49.011,1.002,45.156,0h5.386c0.964,0.229,1.899,0.458,2.778,0.745c2.126,0.687,3.402,1.632,5.5,2.376
		c4.167,1.518,9.496,1.174,13.549,2.892c3.146,1.288,4.876,3.607,8.051,4.896c4.422,1.775,10.233,1.088,15.42,1.718
		c5.301,0.63,9.95,2.663,15.279,3.235c2.693,0.286,5.442,0.172,8.192,0.086c4.875-0.201,9.723-0.745,14.542-0.802
		c-8.759-0.773-17.319-2.09-25.313-4.438c-1.729-0.487-3.458-1.06-4.875-1.833c-1.333-0.716-2.381-1.604-3.742-2.291
		c-4.62-2.348-12.642-2.52-14.457-6.012c1.389,0.143,2.75,0.401,4.054,0.716c4.224,1.031,8.05,2.749,11.99,4.18
		c22.876,8.446,51.137,8.475,77.811,8.274c9.779-0.086,19.531-0.143,29.311-0.229c6.293-0.057,12.586-0.086,18.851-0.315
		c15.846-0.601,31.521-2.319,47.14-4.037c2.183-0.257,4.365-0.515,6.548-0.83c2.325-0.344,4.593-0.745,6.775-1.346
		c0.481-0.143,0.964-0.286,1.417-0.429c5.216-1.632,9.496-4.381,14.174-6.557h4.818c-4.648,2.376-9.751,4.38-15.137,6.098
		c0.085,0,0.198,0,0.312,0c3.969-0.114,8.164,0.315,11.707-0.801c3.912-1.203,6.406-4.094,10.743-4.438
		c1.418-0.143,2.863,0.057,4.309,0c1.645-0.086,3.118-0.401,4.508-0.859H328.62z M0,47.813V47.04
		c0.907-0.372,1.814-0.716,2.806-0.831c3.827-0.429,7.058,2.605,10.914,2.949c3.855,0.344,7.427-2.09,11.31-1.946
		c1.984,0.057,3.855,0.801,5.811,1.174c7.682,1.517,15.023-2.233,22.621,0c6.832,2.004,13.805,1.718,20.806,2.146H60.463
		c-0.255,0.544-0.539,1.06-0.851,1.547c-3.997-0.401-7.767-1.003-11.764-1.804c-4.989-1.003-9.921,1.316-14.967,0.572
		c-2.523-0.372-4.961-1.231-7.512-1.116c-3.289,0.143-6.35,1.918-9.638,1.774C11.083,51.334,7.398,47.44,2.75,47.44
		C1.814,47.44,0.907,47.584,0,47.813L0,47.813z M100.488,50.532c0.708-0.057,1.417-0.114,2.126-0.172
		c2.097-0.2,4.337-0.4,6.292,0.172H100.488z M110.381,50.532c0.68-1.23,2.381-1.946,3.997-2.004
		c1.814-0.086,3.571,0.487,5.329,0.916c1.927,0.487,3.883,0.859,5.839,1.088H110.381z M136.459,50.532
		c1.219-0.143,2.438-0.343,3.628-0.572c1.729-0.344,3.458-0.802,5.216-0.688c1.389,0.086,2.721,0.487,4.054,0.859
		c0.51,0.144,1.021,0.286,1.531,0.4H136.459z M0,34.5v-1.775c10.318,2.062,20.834,3.607,31.634,3.521
		c6.803-0.086,13.72-0.802,20.381,0.028c4.791,0.602,9.212,1.976,13.918,2.777c4.28,0.716,8.731,0.974,13.153,1.202
		c8.986,0.458,17.972,0.888,26.958,1.231c11.565,0.458,23.159,0.83,34.725,0.516c10.176-0.286,20.409-1.117,30.501-0.286
		c10.715,0.887,20.919,3.607,31.691,4.065c13.351,0.544,26.39-2.434,39.685-3.35c10.375-0.688,20.863-0.144,31.323-0.344
		c14.031,0,28.289-2.09,41.924-3.894c6.35-0.859,12.671-1.747,19.049-2.52v2.118c-3.203,0.486-6.435,0.859-9.723,0.888
		c-1.247,0-2.551-0.028-3.742,0.2c-1.389,0.258-2.551,0.83-3.911,1.146c-1.843,0.4-3.884,0.286-5.868,0.258
		c-10.715-0.172-20.862,2.748-31.379,3.979c-14.91,1.746-30.388,0.057-45.383,1.374c-14.061,1.202-28.205,5.039-41.953,2.863
		c-4.167-0.658-8.051-1.861-12.188-2.605c-6.293-1.116-12.756-0.028-19.191-0.2c-7.427-0.172-14.854-0.344-22.252-0.544
		c-15.137-0.401-30.274-0.831-45.411-1.317c-7.001-0.229-14.031-0.486-20.919-1.231c-12.359-1.345-24.236-4.323-36.737-4.81
		c-6.888-0.286-13.89,0.2-20.636-0.63C11.48,36.646,7.54,35.645,3.43,34.986C2.296,34.814,1.162,34.643,0,34.5L0,34.5z M0,22.79
		v-1.976c2.041,0.315,4.082,0.658,6.094,0.973c3.543,0.573,7.455,0.888,10.857,1.718c2.834,0.688,4.819,1.804,8.164,1.604
		c1.956-0.115,3.742-0.687,5.613-1.059c1.871-0.373,4.025-0.544,5.697,0.114c1.502,0.601,2.325,1.775,3.997,2.233
		c1.304,0.343,2.834,0.143,4.252,0.229c2.466,0.114,4.677,1.088,7.144,1.288c2.778,0.229,5.159-0.229,7.823,0.458
		c5.074,1.318,9.667,2.892,15.25,3.236c6.718,0.4,13.437-0.459,20.154-0.688c1.502-0.058,3.033-0.058,4.536,0.143
		c1.757,0.229,3.373,0.773,5.017,1.26c7.313,2.091,15.109,1.604,22.649,2.949c2.495,0.43,4.195,1.432,6.52,2.062
		c3.94,1.06,7.03,0.144,11.027-0.286c3.317-0.344,6.832-0.028,9.808,0.944c0.878,0.258,1.701,0.602,2.636,0.802
		c1.956,0.458,4.082,0.315,6.151,0.144c8.419-0.602,16.215-0.286,24.661-0.458c4.649-0.086,10.573,0.229,14.712-1.231
		c1.134-0.4,2.211-0.916,3.487-0.974c2.211-0.114,3.968,1.117,6.065,1.518c3.686,0.716,7.229-1.116,10.801-2.004
		c5.612-1.403,11.934-0.516,17.886,0.2c5.302,0.63,10.573,0.544,15.932,0.716c5.017,0.2,8.73-0.888,13.719-1.346
		c2.523-0.229,5.103-0.028,7.626-0.028c4.818,0.028,9.638-0.602,14.003-1.833c2.041-0.572,3.997-1.259,6.18-1.546
		c1.984-0.257,4.025-0.172,6.037-0.343c2.126-0.172,4.195-0.602,6.208-1.031c4.139-0.916,8.93-1.517,12.359-3.178
		c3.628-1.718,5.811-3.436,10.998-3.292c0.284,0.028,0.596,0.028,0.879,0.057v2.863l-0.51,0.114
		c-9.213,2.434-18.454,4.839-28.063,6.613c-21.883,4.065-45.014,4.609-67.861,5.125c-12.388,0.286-24.774,0.573-37.134,0.83
		c-24.859,0.573-50.145,1.117-74.154-2.862c-12.501-2.062-25.115-5.354-37.928-4.123c-3.345,0.314-6.661,0.974-10.063,0.974
		c-2.919-0.029-5.754-0.516-8.589-1.002c-9.836-1.689-19.701-3.379-29.537-5.068c-2.466-0.43-4.96-0.859-7.54-0.917
		c-2.154-0.057-4.309,0.144-6.463,0.144c-3.203-0.029-6.321-0.544-9.411-1.088L0,22.79z M334.941,48.07v-2.29
		c-6.265,0.658-12.586,0.888-18.879,1.688c-2.466,0.315-4.903,0.602-7.37,0.917c-1.672,0.2-3.401,0.429-5.073,0.2
		c-2.892-0.372-5.585-2.033-8.504-1.775c-1.871,0.144-3.516,1.088-5.244,1.775c-4.989,2.004-8.958,1.002-14.004,0.744
		c-5.499-0.286-11.366,0.802-16.866,0.974c-7.71,0.258-15.222-1.746-22.96,0.229h58.337c0.227,0,0.425,0,0.623,0h21.714
		c1.19-0.257,2.409-0.544,3.6-0.772C325.105,48.758,330.01,48.185,334.941,48.07L334.941,48.07z M334.941,14.802v-1.288
		c-0.964,0.172-1.899,0.343-2.863,0.515c-8.078,1.546-15.931,3.521-23.414,5.927c-2.749,0.887-5.896,2.634-8.872,2.978
		c-3.6,0.401-7.087-1.117-10.771-0.344c-3.231,0.687-5.216,2.834-8.419,3.55c-4.961,1.117-10.687-0.745-15.874-0.286
		c-5.188,0.458-9.524,2.662-14.457,3.636c-5.669,1.116-10.998,0.658-16.725,0.859c-5.584,0.2-10.715,2.634-16.355,1.088
		c-1.786-0.487-3.345-1.317-5.301-1.489c-2.211-0.229-4.337,0.487-6.435,1.031c-3.742,1.002-9.354,0-13.408-0.201
		c-6.066-0.314-12.614-1.288-17.858,0.602c-1.19,0.43-1.105,1.746-1.672,1.002c-5.84-0.63-11.821-0.4-17.773-0.572
		c-0.708-0.029-1.446-0.058-2.126-0.2c-0.708-0.172-1.332-0.516-2.069-0.659c-2.098-0.458-4.252,0.544-6.463,0.773
		c-3.94,0.43-7.229-1.489-10.573-2.376c-3.742-0.974-7.824-1.002-11.622-1.947c-1.701-0.43-3.345-0.917-5.159-1.031
		c-2.069-0.086-4.082,0.343-6.151,0.429c-3.628,0.172-7.115-0.687-10.659-1.174c-1.219-0.171-2.438-0.315-3.656-0.315
		c-3.827-0.085-7.994,0.773-11.339-0.372c-1.871-0.658-3.43-1.918-5.584-1.804c-3.884,0.201-5.244,0.057-8.816-1.203
		c-2.41-0.83-4.507-2.118-7.229-2.434c-1.19-0.143-2.409-0.085-3.628-0.143c-4.365-0.2-5.868-1.804-8.929-3.292
		c-2.948-1.46-7.115-2.319-10.545-3.35c-0.255-0.057-0.51-0.143-0.766-0.229l0,0c-5.527-1.632-9.638-2.949-13.351-5.984l0,0
		c-0.085-0.086-0.198-0.143-0.284-0.229c-2.239-1.918-4.904-3.865-8.617-4.438C15.108,1.489,13.464,0.745,11.82,0h-1.814
		c4.28,2.205,8.249,4.323,12.784,6.557c3.373,1.66,6.775,3.321,10.261,4.896c22.025,9.877,48.614,15.861,75.827,17.063
		c5.131,0.229,10.318,0.315,15.25,1.175c4.451,0.801,8.504,2.204,12.897,3.092c8.022,1.603,16.186,0.744,24.18,1.688
		c6.889,0.831,13.323-1.89,20.154-1.46c7.2,0.458,14.287,0.688,21.601-0.028c1.898-0.172,3.826-0.43,5.726-0.258
		c2.239,0.172,4.224,0.888,6.378,1.317c5.84,1.116,8.985-0.602,14.088-1.747c8.079-1.832,17.15-0.458,25.455-2.663
		c1.956-0.515,3.855-1.173,5.896-1.545c5.839-1.088,11.99-0.372,17.943-0.115c2.579,0.115,4.875,0.344,7.2-0.4
		c2.098-0.659,3.032-2.233,5.414-2.663c3.713-0.687,7.653,0.859,11.679,0.144c4.535-0.831,7.71-2.777,11.452-4.409
		c3.43-1.489,7.427-2.376,11.31-3.35C328.705,16.52,331.823,15.689,334.941,14.802L334.941,14.802z M286.497,8.045
		c-3.486,0.945-7.058,1.775-10.658,2.491c-14.145,2.834-28.941,4.266-43.653,5.669c-9.808,0.944-19.7,1.889-29.594,1.488
		c-5.272-0.2-10.46-0.801-15.732-1.116c-6.916-0.43-13.89-0.43-20.834-0.43c-7.937,0-15.987-0.028-23.953-0.458
		c0.085,0.029,0.17,0.029,0.255,0.057c8.192,1.403,15.563,4.438,24.208,4.839c8.107,0.401,16.016-1.546,24.123-1.976
		c7.908-0.43,15.789,0.573,23.726,0.859c13.976,0.458,27.865-1.375,41.528-3.207c8.787-1.203,17.943-2.405,25.71-5.325
		C283.89,10.078,285.108,8.99,286.497,8.045L286.497,8.045z"/>
	<path fill="#752900" d="M48.359,0H32.173H17.49H6.321C2.834,0,0,2.863,0,6.385v45.522c0,3.521,2.834,6.384,6.321,6.384H17.49
		h14.683h16.186c6.009,0,11.14-4.065,12.841-9.619c1.502-4.095,2.523-11.31,2.523-19.526S62.702,13.714,61.2,9.62
		C59.499,4.065,54.368,0,48.359,0L48.359,0z"/>
	<path fill="#9C4803" d="M48.359,0H34.242v0.029C11.934,0.573,3.458,3.035,3.486,23.162c0,1.489,0,3.035,0,4.552
		c-0.028,1.775-0.028,3.55,0.113,5.296c1.417,16.635,11.48,17.607,34.555,17.493c7.398-0.028,14.91,0.172,22.309,0.028
		c0.283-0.601,0.539-1.202,0.737-1.86c1.502-4.095,2.523-11.31,2.523-19.526S62.702,13.714,61.2,9.62
		C59.499,4.065,54.368,0,48.359,0L48.359,0z"/>
	<polygon fill-rule="evenodd" clip-rule="evenodd" fill="#FCD79C" points="48.813,30.549 37.587,10.879 36.425,11.567 47.65,31.207 
		48.302,30.835 	"/>
	<polygon fill-rule="evenodd" clip-rule="evenodd" fill="#C47A48" points="48.813,30.549 37.587,10.879 37.899,10.679 
		49.152,30.349 48.954,30.463 	"/>
	<path fill-rule="evenodd" clip-rule="evenodd" fill="#752900" d="M49.89,33.383h-0.028c-0.964,0.573-1.559-0.344-1.871-1.346
		c-0.113-0.372-0.227-0.63-0.425-0.974l1.474-0.858c0.199,0.315,0.397,0.572,0.652,0.83c0.708,0.802,1.162,1.747,0.198,2.319V33.383
		L49.89,33.383L49.89,33.383z"/>
	<path fill-rule="evenodd" clip-rule="evenodd" fill="#9C4803" d="M49.72,33.469c-0.907,0.372-1.446-0.486-1.729-1.432
		c-0.113-0.372-0.227-0.63-0.425-0.974l1.162-0.687c0.198,0.344,0.396,0.572,0.652,0.858C50.031,31.98,50.485,32.868,49.72,33.469
		L49.72,33.469z"/>
	<path fill-rule="evenodd" clip-rule="evenodd" fill="#F2B16F" d="M45.439,24.651c-0.681-1.031-1.361-2.062-1.645-2.548
		c-0.793-1.46-0.907-1.718-0.907-1.718l1.077,1.661L45.439,24.651z M47.679,31.007c-0.766-1.316-1.417-2.491-2.098-3.865
		c-0.567-1.088-1.219-2.147-2.013-3.121l-2.523-4.352c-0.595-1.718-3.004-5.611-4.025-7.071l-0.596-1.031l0.199-0.143
		c1.531,2.834,2.353,3.894,3.883,6.699c0.199,0.344,1.077,2.348,1.276,2.72c0.793,1.489,1.871,2.863,2.693,4.266
		c1.077,1.833,2.296,4.094,3.288,5.84L47.679,31.007z M37.474,10.937l0.114-0.058l0.425,0.773
		C37.814,11.309,37.616,11.023,37.474,10.937L37.474,10.937z M38.126,11.853l1.304,2.262c0.879,2.291,2.154,3.979,3.402,6.184
		c-1.163-1.718-1.191-1.603-1.758-2.577c-0.68-1.174-1.275-2.548-1.814-3.636C39.033,13.686,38.58,12.626,38.126,11.853
		L38.126,11.853z M45.978,25.567l2.75,4.81l-0.085,0.058c-0.114-0.258-0.34-0.659-0.51-0.974c-0.936-1.689-3.09-4.782-3.43-5.354
		c-0.567-1.002-2.409-3.894-2.806-4.924c0.878,1.431,2.183,3.665,3.345,5.354C45.496,24.908,45.723,25.224,45.978,25.567
		L45.978,25.567z M47.962,30.835c-0.368-0.63-1.134-2.291-1.814-3.693c0.482,0.859,1.19,2.291,1.757,3.092
		c0.17,0.229,0.17,0.372,0.227,0.487L47.962,30.835z M46.715,28.859c-1.304-2.806-3.742-6.642-4.989-9.133
		c-1.162-2.319-2.693-5.096-3.004-5.44c1.105,1.775,2.126,4.323,3.118,6.041C43.398,23.047,45.184,25.911,46.715,28.859
		L46.715,28.859z M38.721,14.573c-0.482-0.859-0.936-1.746-1.361-2.634c-0.142-0.315-0.255-0.43-0.312-0.601
		C37.021,11.681,37.757,12.998,38.721,14.573L38.721,14.573z M37.644,11.939c0.34,0.458,1.757,3.264,2.183,3.894
		c0,0-0.766-1.546-0.907-1.89c-0.227-0.601-1.077-2.004-1.644-2.892l-0.113,0.086C37.332,11.452,37.644,11.939,37.644,11.939
		L37.644,11.939z M47.934,29.976c-0.198-0.515-3.713-6.069-4.025-6.756c0,0,2.608,3.979,2.834,4.294
		c0.454,0.573,1.105,2.147,1.531,3.007c0,0,0.028,0.057,0.057,0.114l-0.057,0.028C48.104,30.405,47.934,29.976,47.934,29.976
		L47.934,29.976z"/>
	<path fill-rule="evenodd" clip-rule="evenodd" fill="#B95300" d="M47.99,31.437c0.028,0.372,0.199,0.973,0.454,1.374
		c0.369,0.63,0.936,0.772,1.105,0.344C49.918,32.152,47.905,30.435,47.99,31.437L47.99,31.437z"/>
	<path fill-rule="evenodd" clip-rule="evenodd" fill="#F5A478" d="M48.217,31.579c0,0.344,0.142,0.859,0.34,1.203
		c0.199,0.286,0.425,0.429,0.652,0.458c-0.199-0.172-0.369-0.372-0.51-0.659C48.5,32.295,48.359,31.951,48.217,31.579L48.217,31.579
		z"/>
	<polygon fill-rule="evenodd" clip-rule="evenodd" fill="#FCD79C" points="46.375,35.015 35.149,15.375 33.987,16.033 
		45.241,35.702 45.864,35.33 	"/>
	<polygon fill-rule="evenodd" clip-rule="evenodd" fill="#C47A48" points="46.375,35.015 35.149,15.375 35.461,15.174 
		46.715,34.843 46.545,34.929 	"/>
	<path fill-rule="evenodd" clip-rule="evenodd" fill="#752900" d="M47.452,37.85L47.452,37.85c-0.992,0.572-1.587-0.315-1.899-1.317
		c-0.113-0.372-0.227-0.658-0.397-0.974l1.474-0.888c0.198,0.344,0.368,0.573,0.624,0.859C47.962,36.304,48.444,37.276,47.452,37.85
		L47.452,37.85L47.452,37.85L47.452,37.85z"/>
	<path fill-rule="evenodd" clip-rule="evenodd" fill="#9C4803" d="M47.282,37.936c-0.879,0.4-1.446-0.458-1.729-1.403
		c-0.113-0.372-0.227-0.658-0.397-0.974l1.134-0.687c0.199,0.314,0.397,0.572,0.652,0.858
		C47.622,36.446,48.047,37.362,47.282,37.936L47.282,37.936z"/>
	<path fill-rule="evenodd" clip-rule="evenodd" fill="#F2B16F" d="M43.03,29.146c-0.708-1.059-1.389-2.09-1.672-2.577
		c-0.794-1.431-0.907-1.718-0.907-1.718l1.077,1.689L43.03,29.146z M45.241,35.502c-0.765-1.317-1.389-2.52-2.098-3.865
		c-0.567-1.088-1.219-2.147-2.013-3.121l-2.494-4.38c-0.624-1.718-3.033-5.583-4.054-7.043l-0.595-1.059l0.198-0.115
		c1.559,2.834,2.381,3.865,3.884,6.671c0.198,0.372,1.077,2.348,1.275,2.72c0.794,1.489,1.871,2.892,2.693,4.295
		c1.105,1.832,2.324,4.064,3.316,5.812L45.241,35.502z M35.036,15.432l0.113-0.057l0.454,0.773
		C35.376,15.775,35.178,15.518,35.036,15.432L35.036,15.432z M35.716,16.348l1.276,2.262c0.878,2.262,2.154,3.951,3.43,6.155
		c-1.19-1.718-1.219-1.575-1.786-2.548c-0.681-1.203-1.248-2.577-1.814-3.636C36.624,18.18,36.142,17.121,35.716,16.348
		L35.716,16.348z M43.54,30.033l2.75,4.839l-0.057,0.057c-0.113-0.258-0.369-0.658-0.539-0.973c-0.907-1.718-3.09-4.811-3.401-5.383
		c-0.567-0.974-2.438-3.865-2.807-4.896c0.851,1.403,2.183,3.636,3.345,5.354C43.058,29.375,43.313,29.718,43.54,30.033
		L43.54,30.033z M45.524,35.33c-0.369-0.63-1.105-2.291-1.814-3.693c0.482,0.858,1.219,2.29,1.758,3.063
		c0.17,0.258,0.17,0.4,0.255,0.516L45.524,35.33z M44.305,33.326c-1.332-2.806-3.742-6.643-5.017-9.133
		c-1.162-2.291-2.665-5.068-3.005-5.411c1.105,1.775,2.126,4.294,3.118,6.041C40.96,27.514,42.774,30.405,44.305,33.326
		L44.305,33.326z M36.312,19.039c-0.51-0.859-0.964-1.718-1.36-2.605c-0.17-0.315-0.255-0.458-0.312-0.63
		C34.583,16.176,35.319,17.493,36.312,19.039L36.312,19.039z M35.206,16.434c0.34,0.458,1.786,3.264,2.211,3.894
		c0,0-0.765-1.575-0.907-1.918c-0.255-0.572-1.105-1.975-1.673-2.863l-0.113,0.057C34.895,15.947,35.206,16.434,35.206,16.434
		L35.206,16.434z M45.524,34.471c-0.227-0.515-3.742-6.069-4.054-6.756c0,0,2.608,3.98,2.834,4.266
		c0.454,0.601,1.134,2.176,1.559,3.034c0,0,0,0.029,0.028,0.086l-0.057,0.029C45.694,34.9,45.524,34.471,45.524,34.471
		L45.524,34.471z"/>
	<path fill-rule="evenodd" clip-rule="evenodd" fill="#B95300" d="M45.553,35.931c0.028,0.373,0.227,0.974,0.454,1.375
		c0.368,0.63,0.963,0.744,1.105,0.344C47.48,36.618,45.496,34.929,45.553,35.931L45.553,35.931z"/>
	<path fill-rule="evenodd" clip-rule="evenodd" fill="#F5A478" d="M45.779,36.074c0.028,0.315,0.17,0.83,0.369,1.174
		c0.17,0.286,0.425,0.458,0.624,0.487c-0.17-0.172-0.369-0.401-0.51-0.659C46.091,36.79,45.921,36.418,45.779,36.074L45.779,36.074z
		"/>
	<polygon fill-rule="evenodd" clip-rule="evenodd" fill="#FCD79C" points="23.471,39.682 45.949,39.682 45.949,38.336 
		23.471,38.336 23.471,39.08 	"/>
	<polygon fill-rule="evenodd" clip-rule="evenodd" fill="#C47A48" points="23.471,39.682 45.949,39.682 45.949,40.054 
		23.471,40.054 23.471,39.854 	"/>
	<path fill-rule="evenodd" clip-rule="evenodd" fill="#752900" d="M20.522,39.195L20.522,39.195c0-1.146,1.049-1.231,2.069-1.002
		c0.369,0.085,0.681,0.143,1.049,0.143v1.718c-0.368,0-0.68,0.058-1.049,0.144C21.571,40.426,20.522,40.34,20.522,39.195
		L20.522,39.195L20.522,39.195L20.522,39.195z"/>
	<path fill-rule="evenodd" clip-rule="evenodd" fill="#9C4803" d="M20.522,38.994c0.114-0.944,1.106-1.002,2.069-0.801
		c0.369,0.085,0.681,0.143,1.049,0.143v1.346c-0.368,0-0.68,0.058-1.049,0.144C21.628,40.025,20.636,39.968,20.522,38.994
		L20.522,38.994z"/>
	<path fill-rule="evenodd" clip-rule="evenodd" fill="#F2B16F" d="M30.189,39.682c1.247-0.086,2.494-0.172,3.033-0.172
		c1.645,0.028,1.928,0.058,1.928,0.058l-1.984,0.114H30.189z M23.641,38.45c1.502,0,2.863,0.029,4.366,0.086
		c1.219,0.058,2.438,0.029,3.685-0.2h4.989c1.786,0.315,6.321,0.172,8.079,0h1.19v0.229c-3.203-0.058-4.507,0.143-7.653,0.057
		c-0.425,0-2.551-0.229-2.977-0.258c-1.672-0.028-3.401,0.201-5.017,0.229c-2.126,0.028-4.649-0.028-6.662-0.028V38.45z
		 M45.949,39.538v0.144h-0.878C45.468,39.682,45.808,39.653,45.949,39.538L45.949,39.538z M44.844,39.682h-2.608
		c-2.381-0.372-4.45-0.114-6.973-0.114c2.041-0.144,1.956-0.258,3.09-0.258c1.333,0,2.806,0.172,3.997,0.229
		C42.803,39.567,43.937,39.682,44.844,39.682L44.844,39.682z M29.168,39.682h-5.528v-0.086c0.284,0.028,0.737,0,1.105,0.028
		c1.928,0.029,5.669-0.314,6.293-0.314c1.134,0,4.536-0.172,5.641,0c-1.672,0.058-4.224,0.086-6.265,0.258
		C29.962,39.596,29.565,39.653,29.168,39.682L29.168,39.682z M23.641,38.794c0.709-0.028,2.523,0.144,4.082,0.258
		c-0.992,0-2.551-0.086-3.515,0c-0.312,0-0.425-0.058-0.567-0.058V38.794z M25.965,38.708c3.061,0.229,7.568,0.029,10.346,0.172
		c2.551,0.144,5.698,0.2,6.151,0.086c-2.069,0.086-4.762-0.286-6.747-0.286C32.626,38.68,29.253,38.823,25.965,38.708L25.965,38.708
		z M42.208,38.852c0.992,0,1.984,0.028,2.92,0.114c0.369,0.028,0.51,0,0.68,0.028C45.553,38.794,44.05,38.794,42.208,38.852
		L42.208,38.852z M45.014,39.195c-0.567,0.086-3.685-0.086-4.451,0c0,0,1.729,0.086,2.098,0.143c0.624,0.086,2.239,0.029,3.288,0
		v-0.143C45.581,39.166,45.014,39.195,45.014,39.195L45.014,39.195z M24.378,39.195c0.567,0.086,7.086-0.229,7.823-0.144
		c0,0-4.733,0.286-5.074,0.344c-0.737,0.086-2.438-0.114-3.373-0.172c0,0-0.057,0-0.114-0.028v-0.058
		C23.953,39.138,24.378,39.195,24.378,39.195L24.378,39.195z"/>
	<path fill-rule="evenodd" clip-rule="evenodd" fill="#B95300" d="M23.13,38.508c-0.34-0.172-0.935-0.314-1.417-0.286
		c-0.709,0-1.134,0.458-0.851,0.772C21.543,39.854,24.009,38.938,23.13,38.508L23.13,38.508z"/>
	<path fill-rule="evenodd" clip-rule="evenodd" fill="#F5A478" d="M22.875,38.651c-0.284-0.172-0.794-0.315-1.19-0.287
		c-0.34,0-0.595,0.115-0.709,0.287c0.227-0.058,0.51-0.115,0.794-0.115C22.11,38.536,22.507,38.565,22.875,38.651L22.875,38.651z"/>
	<polygon fill-rule="evenodd" clip-rule="evenodd" fill="#FCD79C" points="20.834,35.33 43.313,35.33 43.313,33.956 20.834,33.956 
		20.834,34.7 	"/>
	<polygon fill-rule="evenodd" clip-rule="evenodd" fill="#C47A48" points="20.834,35.33 43.313,35.33 43.313,35.702 20.834,35.702 
		20.834,35.473 	"/>
	<path fill-rule="evenodd" clip-rule="evenodd" fill="#752900" d="M17.886,34.843v-0.028c0-1.146,1.078-1.202,2.098-0.974
		c0.369,0.086,0.652,0.115,1.021,0.115v1.746c-0.368,0-0.652,0.058-1.021,0.114C18.964,36.074,17.886,35.988,17.886,34.843
		L17.886,34.843L17.886,34.843L17.886,34.843z"/>
	<path fill-rule="evenodd" clip-rule="evenodd" fill="#9C4803" d="M17.886,34.643c0.114-0.974,1.134-1.03,2.098-0.802
		c0.369,0.086,0.652,0.115,1.021,0.115v1.374c-0.368,0-0.652,0.028-1.021,0.114C19.021,35.674,18,35.616,17.886,34.643
		L17.886,34.643z"/>
	<path fill-rule="evenodd" clip-rule="evenodd" fill="#F2B16F" d="M27.581,35.33c1.247-0.114,2.466-0.2,3.004-0.172
		c1.645,0,1.956,0.058,1.956,0.058l-1.984,0.114H27.581z M21.004,34.099c1.502-0.028,2.863,0,4.366,0.086
		c1.219,0.058,2.466,0,3.685-0.229h5.017c1.757,0.343,6.293,0.172,8.05,0h1.191v0.257c-3.175-0.057-4.479,0.115-7.654,0.058
		c-0.425-0.028-2.551-0.258-2.977-0.258c-1.672-0.057-3.401,0.2-5.017,0.229c-2.126,0.028-4.649-0.029-6.662-0.029V34.099z
		 M43.313,35.187v0.144h-0.879C42.86,35.302,43.171,35.272,43.313,35.187L43.313,35.187z M42.208,35.33H39.6
		c-2.381-0.372-4.45-0.114-6.973-0.114c2.069-0.172,1.956-0.258,3.09-0.258c1.361,0,2.806,0.172,3.997,0.2
		C40.167,35.187,41.329,35.302,42.208,35.33L42.208,35.33z M26.532,35.33h-5.528v-0.114c0.284,0.028,0.737,0.028,1.105,0.028
		c1.928,0.058,5.669-0.286,6.321-0.286c1.134,0,4.507-0.201,5.613,0c-1.644,0.028-4.224,0.086-6.265,0.229
		C27.354,35.244,26.929,35.272,26.532,35.33L26.532,35.33z M21.004,34.414c0.737,0,2.523,0.172,4.082,0.257
		c-0.992,0-2.551-0.085-3.515,0c-0.283,0.029-0.425-0.028-0.567-0.028V34.414z M23.329,34.328c3.062,0.258,7.568,0.057,10.346,0.2
		c2.551,0.143,5.698,0.2,6.151,0.086c-2.069,0.057-4.762-0.315-6.747-0.315C29.99,34.328,26.617,34.471,23.329,34.328L23.329,34.328
		z M39.6,34.471c0.964,0,1.956,0.029,2.92,0.115c0.34,0.057,0.482,0.028,0.68,0.057C42.917,34.414,41.414,34.414,39.6,34.471
		L39.6,34.471z M42.378,34.843c-0.567,0.058-3.685-0.086-4.422-0.028c0,0,1.701,0.114,2.069,0.144c0.624,0.086,2.24,0.057,3.289,0
		v-0.144C42.945,34.814,42.378,34.843,42.378,34.843L42.378,34.843z M21.742,34.843c0.567,0.058,7.086-0.229,7.824-0.172
		c0,0-4.706,0.315-5.074,0.344c-0.737,0.115-2.41-0.114-3.373-0.143c0,0-0.057-0.029-0.114-0.029v-0.057
		C21.316,34.757,21.742,34.843,21.742,34.843L21.742,34.843z"/>
	<path fill-rule="evenodd" clip-rule="evenodd" fill="#B95300" d="M20.494,34.156c-0.34-0.172-0.935-0.315-1.417-0.315
		c-0.709,0.029-1.105,0.458-0.851,0.802C18.907,35.473,21.373,34.586,20.494,34.156L20.494,34.156z"/>
	<path fill-rule="evenodd" clip-rule="evenodd" fill="#F5A478" d="M20.239,34.271c-0.284-0.143-0.794-0.286-1.19-0.286
		c-0.34,0-0.595,0.144-0.709,0.314c0.227-0.086,0.51-0.114,0.794-0.114C19.502,34.156,19.871,34.213,20.239,34.271L20.239,34.271z"
		/>
	<polygon fill-rule="evenodd" clip-rule="evenodd" fill="#FCD79C" points="29.14,13.428 17.915,33.068 16.752,32.409 27.978,12.741 
		28.63,13.113 	"/>
	<polygon fill-rule="evenodd" clip-rule="evenodd" fill="#C47A48" points="29.14,13.428 17.915,33.068 18.227,33.269 29.452,13.6 
		29.282,13.514 	"/>
	<path fill-rule="evenodd" clip-rule="evenodd" fill="#752900" d="M30.217,10.593h-0.028c-0.964-0.573-1.559,0.315-1.871,1.317
		c-0.113,0.372-0.227,0.659-0.425,1.002l1.474,0.859c0.199-0.344,0.397-0.573,0.652-0.859
		C30.728,12.139,31.181,11.166,30.217,10.593L30.217,10.593L30.217,10.593L30.217,10.593z"/>
	<path fill-rule="evenodd" clip-rule="evenodd" fill="#9C4803" d="M30.047,10.507c-0.907-0.401-1.445,0.458-1.729,1.403
		c-0.113,0.372-0.227,0.659-0.425,1.002l1.163,0.659c0.198-0.315,0.368-0.573,0.624-0.83C30.359,11.996,30.813,11.08,30.047,10.507
		L30.047,10.507z"/>
	<path fill-rule="evenodd" clip-rule="evenodd" fill="#F2B16F" d="M25.767,19.297c-0.708,1.06-1.389,2.09-1.644,2.577
		c-0.793,1.432-0.907,1.718-0.907,1.718l1.077-1.689L25.767,19.297z M28.006,12.97c-0.766,1.288-1.417,2.491-2.098,3.836
		c-0.567,1.117-1.219,2.176-2.041,3.121l-2.495,4.38c-0.595,1.718-3.005,5.612-4.025,7.072l-0.595,1.03l0.199,0.115
		c1.531-2.834,2.353-3.865,3.883-6.671c0.198-0.373,1.077-2.348,1.275-2.72c0.794-1.489,1.843-2.892,2.693-4.294
		c1.078-1.833,2.296-4.065,3.289-5.812L28.006,12.97z M17.801,33.011l0.114,0.058l0.425-0.773
		C18.142,32.667,17.943,32.953,17.801,33.011L17.801,33.011z M18.454,32.095l1.304-2.262c0.879-2.262,2.154-3.951,3.401-6.156
		c-1.162,1.718-1.19,1.575-1.757,2.548c-0.68,1.202-1.275,2.577-1.814,3.636C19.36,30.263,18.907,31.321,18.454,32.095
		L18.454,32.095z M26.305,18.409l2.75-4.838l-0.085-0.057c-0.113,0.258-0.34,0.658-0.51,0.973c-0.935,1.718-3.089,4.81-3.43,5.383
		c-0.567,0.973-2.41,3.865-2.806,4.924c0.878-1.432,2.183-3.665,3.345-5.382C25.823,19.068,26.05,18.724,26.305,18.409
		L26.305,18.409z M28.29,13.113c-0.369,0.63-1.134,2.291-1.814,3.693c0.482-0.859,1.19-2.262,1.757-3.063
		c0.17-0.258,0.17-0.401,0.227-0.515L28.29,13.113z M27.042,15.117c-1.304,2.806-3.742,6.643-4.989,9.133
		c-1.162,2.291-2.693,5.067-3.033,5.44c1.134-1.804,2.154-4.324,3.146-6.042C23.726,20.929,25.512,18.037,27.042,15.117
		L27.042,15.117z M19.049,29.403c-0.482,0.859-0.964,1.718-1.361,2.605c-0.142,0.314-0.255,0.458-0.312,0.63
		C17.348,32.267,18.085,30.949,19.049,29.403L19.049,29.403z M17.972,32.009c0.34-0.458,1.757-3.264,2.183-3.894
		c0,0-0.766,1.575-0.907,1.918c-0.227,0.572-1.077,1.976-1.644,2.863l-0.113-0.058C17.66,32.495,17.972,32.009,17.972,32.009
		L17.972,32.009z M28.261,13.972c-0.227,0.515-3.713,6.07-4.025,6.757c0,0,2.608-3.979,2.835-4.266
		c0.454-0.601,1.105-2.176,1.531-3.035c0,0,0.028-0.029,0.057-0.086l-0.057-0.029C28.431,13.571,28.261,13.972,28.261,13.972
		L28.261,13.972z"/>
	<path fill-rule="evenodd" clip-rule="evenodd" fill="#B95300" d="M28.318,12.54c0.028-0.401,0.199-0.973,0.454-1.403
		c0.369-0.63,0.936-0.744,1.105-0.343C30.246,11.824,28.233,13.542,28.318,12.54L28.318,12.54z"/>
	<path fill-rule="evenodd" clip-rule="evenodd" fill="#F5A478" d="M28.545,12.368c0-0.315,0.142-0.83,0.34-1.174
		c0.199-0.286,0.425-0.458,0.624-0.486c-0.17,0.171-0.34,0.4-0.51,0.658C28.828,11.653,28.687,12.025,28.545,12.368L28.545,12.368z"
		/>
	<polygon fill-rule="evenodd" clip-rule="evenodd" fill="#FCD79C" points="34.186,13.313 22.96,32.953 21.798,32.295 33.052,12.626 
		33.675,12.998 	"/>
	<polygon fill-rule="evenodd" clip-rule="evenodd" fill="#C47A48" points="34.186,13.313 22.96,32.953 23.301,33.154 34.526,13.485 
		34.356,13.399 	"/>
	<path fill-rule="evenodd" clip-rule="evenodd" fill="#752900" d="M35.263,10.479L35.263,10.479
		c-0.992-0.572-1.587,0.315-1.899,1.317c-0.114,0.372-0.227,0.658-0.397,0.973l1.474,0.888c0.198-0.344,0.368-0.573,0.624-0.859
		C35.773,12.025,36.255,11.051,35.263,10.479L35.263,10.479L35.263,10.479L35.263,10.479z"/>
	<path fill-rule="evenodd" clip-rule="evenodd" fill="#9C4803" d="M35.093,10.393c-0.879-0.401-1.446,0.458-1.729,1.403
		c-0.114,0.372-0.227,0.658-0.397,0.973l1.134,0.688c0.198-0.344,0.397-0.573,0.652-0.859
		C35.433,11.882,35.858,10.965,35.093,10.393L35.093,10.393z"/>
	<path fill-rule="evenodd" clip-rule="evenodd" fill="#F2B16F" d="M30.841,19.183c-0.708,1.03-1.389,2.09-1.672,2.577
		c-0.794,1.431-0.907,1.718-0.907,1.718l1.077-1.689L30.841,19.183z M33.052,12.827c-0.765,1.317-1.389,2.519-2.098,3.865
		c-0.567,1.088-1.219,2.147-2.013,3.121l-2.494,4.38c-0.624,1.718-3.033,5.583-4.054,7.042l-0.595,1.06l0.198,0.114
		c1.559-2.834,2.381-3.865,3.884-6.67c0.198-0.372,1.077-2.348,1.275-2.72c0.793-1.489,1.871-2.892,2.693-4.295
		c1.105-1.832,2.324-4.065,3.316-5.812L33.052,12.827z M22.847,32.896l0.113,0.057l0.454-0.772
		C23.187,32.553,22.989,32.811,22.847,32.896L22.847,32.896z M23.527,31.98l1.275-2.263c0.879-2.261,2.155-3.95,3.43-6.155
		c-1.19,1.718-1.219,1.575-1.786,2.548c-0.681,1.203-1.248,2.577-1.814,3.636C24.435,30.147,23.953,31.207,23.527,31.98
		L23.527,31.98z M31.351,18.295l2.75-4.838l-0.057-0.058c-0.113,0.258-0.369,0.659-0.539,0.974c-0.907,1.718-3.09,4.81-3.401,5.382
		c-0.567,0.974-2.438,3.865-2.807,4.896c0.851-1.403,2.183-3.636,3.345-5.354C30.869,18.953,31.124,18.61,31.351,18.295
		L31.351,18.295z M33.335,12.998c-0.369,0.63-1.105,2.291-1.814,3.693c0.51-0.859,1.219-2.29,1.758-3.063
		c0.17-0.257,0.17-0.4,0.255-0.515L33.335,12.998z M32.116,15.002c-1.332,2.806-3.742,6.642-5.017,9.133
		c-1.162,2.291-2.665,5.068-3.005,5.411c1.105-1.774,2.126-4.294,3.118-6.041C28.771,20.814,30.585,17.923,32.116,15.002
		L32.116,15.002z M24.123,29.289c-0.51,0.858-0.964,1.718-1.36,2.605c-0.17,0.314-0.255,0.458-0.312,0.601
		C22.394,32.152,23.159,30.835,24.123,29.289L24.123,29.289z M23.017,31.895c0.34-0.458,1.786-3.264,2.211-3.894
		c0,0-0.765,1.575-0.907,1.918c-0.255,0.572-1.105,1.976-1.673,2.863l-0.113-0.058C22.706,32.381,23.017,31.895,23.017,31.895
		L23.017,31.895z M33.335,13.857c-0.227,0.516-3.742,6.07-4.054,6.757c0,0,2.636-3.979,2.834-4.266
		c0.454-0.602,1.134-2.176,1.559-3.035c0,0,0-0.028,0.028-0.085l-0.057-0.029C33.505,13.428,33.335,13.857,33.335,13.857
		L33.335,13.857z"/>
	<path fill-rule="evenodd" clip-rule="evenodd" fill="#B95300" d="M33.364,12.397c0.028-0.372,0.227-0.973,0.454-1.374
		c0.368-0.63,0.963-0.745,1.105-0.344C35.291,11.71,33.307,13.399,33.364,12.397L33.364,12.397z"/>
	<path fill-rule="evenodd" clip-rule="evenodd" fill="#F5A478" d="M33.59,12.254c0.028-0.344,0.17-0.83,0.369-1.174
		c0.17-0.315,0.425-0.458,0.624-0.487c-0.17,0.172-0.369,0.401-0.51,0.659C33.902,11.538,33.732,11.91,33.59,12.254L33.59,12.254z"
		/>
</g>
</svg>
